<svg width="1000" height="1000" viewBox="0 0 1000 1000" xmlns="http://www.w3.org/2000/svg"><defs/><path fill="#80bb3b" transform="matrix(0.4676515750649519 0 0 0.46765157506495186 45.350767437539325 37.68282046867296)" d="M 900.14896722789 903.11941164451 C 924.04896722789 899.31941164451 1123.54896722789 867.91941164451 1125.54896722789 867.61941164451 C 1129.44896722789 867.01941164451 1132.54896722789 863.91941164451 1133.24896722789 860.01941164451 L 1155.94896722789 723.21941164451 C 1156.34896722789 720.51941164451 1155.64896722789 717.81941164451 1153.84896722789 715.71941164451 C 1152.04896722789 713.61941164451 1149.54896722789 712.41941164451 1146.74896722789 712.41941164451 L 890.74896722789 712.41941164451 L 919.94896722789 866.61941164451 L 1102.94896722789 839.41941164451 L 1118.04896722789 744.81941164451 L 935.84896722789 744.81941164451 L 949.44896722789 825.61941164451 L 1073.64896722789 811.71941164451 L 1079.64896722789 776.21941164451 L 976.34896722789 776.41941164451 L 978.94896722789 792.61941164451 L 1033.64896722789 788.71941164451 C 1037.44896722789 788.41941164451 1040.84896722789 791.31941164451 1041.14896722789 795.21941164451 C 1041.44896722789 799.11941164451 1038.54896722789 802.41941164451 1034.64896722789 802.71941164451 L 973.54896722789 807.01941164451 C 969.94896722789 807.31941164451 966.64896722789 804.71941164451 966.14896722789 801.11941164451 L 961.34896722789 770.51941164451 C 961.04896722789 768.51941164451 961.64896722789 766.41941164451 962.94896722789 764.91941164451 C 964.24896722789 763.31941164451 966.24896722789 762.41941164451 968.24896722789 762.41941164451 L 1088.14896722789 762.11941164451 C 1088.14896722789 762.11941164451 1088.14896722789 762.11941164451 1088.14896722789 762.11941164451 C 1090.24896722789 762.11941164451 1092.14896722789 763.01941164451 1093.54896722789 764.61941164451 C 1094.84896722789 766.21941164451 1095.44896722789 768.31941164451 1095.14896722789 770.31941164451 L 1086.94896722789 819.21941164451 C 1086.44896722789 822.31941164451 1083.94896722789 824.71941164451 1080.84896722789 825.01941164451 L 944.74896722789 840.21941164451 C 941.04896722789 840.61941164451 937.64896722789 838.11941164451 937.04896722789 834.41941164451 L 921.04896722789 738.91941164451 C 920.74896722789 736.91941164451 921.24896722789 734.81941164451 922.64896722789 733.21941164451 C 923.94896722789 731.61941164451 925.94896722789 730.71941164451 928.04896722789 730.71941164451 L 1126.74896722789 730.71941164451 C 1128.84896722789 730.71941164451 1130.74896722789 731.61941164451 1132.04896722789 733.21941164451 C 1133.34896722789 734.81941164451 1133.94896722789 736.81941164451 1133.64896722789 738.91941164451 L 1116.44896722789 846.71941164451 C 1115.94896722789 849.71941164451 1113.54896722789 852.11941164451 1110.54896722789 852.51941164451 L 915.74896722789 881.51941164451 C 915.44896722789 881.61941164451 915.04896722789 881.61941164451 914.74896722789 881.61941164451 C 911.44896722789 881.61941164451 908.54896722789 879.21941164451 907.84896722789 875.91941164451 L 858.94896722789 631.61941164451 C 858.14896722789 627.81941164451 855.14896722789 624.91941164451 851.24896722789 624.31941164451 L 798.94896722789 616.31941164451 C 793.94896722789 615.51941164451 789.14896722789 619.01941164451 788.44896722789 624.01941164451 C 787.64896722789 629.01941164451 791.14896722789 633.81941164451 796.14896722789 634.51941164451 L 842.04896722789 641.61941164451 L 891.74896722789 886.31941164451 C 879.14896722789 891.01941164451 870.94896722789 904.41941164451 872.14896722789 919.71941164451 C 873.44896722789 935.61941164451 885.24896722789 951.61941164451 908.94896722789 951.61941164451 L 932.84896722789 951.61941164451 C 932.34896722789 952.21941164451 931.84896722789 952.71941164451 931.34896722789 953.31941164451 C 921.34896722789 965.41941164451 921.64896722789 982.21941164451 931.94896722789 990.71941164451 C 935.84896722789 993.91941164451 940.64896722789 995.61941164451 945.94896722789 995.61941164451 C 954.34896722789 995.61941164451 962.84896722789 991.31941164451 968.74896722789 984.11941164451 C 977.04896722789 974.01941164451 978.24896722789 960.71941164451 972.44896722789 951.61941164451 L 1071.44896722789 951.61941164451 C 1070.94896722789 952.21941164451 1070.44896722789 952.71941164451 1069.94896722789 953.31941164451 C 1059.94896722789 965.41941164451 1060.24896722789 982.21941164451 1070.54896722789 990.71941164451 C 1074.44896722789 993.91941164451 1079.24896722789 995.61941164451 1084.54896722789 995.61941164451 C 1092.94896722789 995.61941164451 1101.44896722789 991.31941164451 1107.34896722789 984.11941164451 C 1115.64896722789 974.01941164451 1116.84896722789 960.71941164451 1111.04896722789 951.61941164451 L 1140.54896722789 951.61941164451 C 1145.64896722789 951.61941164451 1149.74896722789 947.51941164451 1149.74896722789 942.41941164451 C 1149.74896722789 937.31941164451 1145.64896722789 933.21941164451 1140.54896722789 933.21941164451 L 909.04896722789 933.21941164451 C 893.04896722789 933.21941164451 890.94896722789 921.81941164451 890.64896722789 918.31941164451 C 890.14896722789 911.51941164451 893.24896722789 904.21941164451 900.14896722789 903.11941164451 Z"/><path id="text" fill="#39844f" transform="matrix(1.283518159948366 0 0 1.283518159948366 -9.610983981693366 417.8493195816904)" d="M 125.02628571429 198.05229926259 C 124.57828571429 197.60429926259 124.35428571429 197.06029926259 124.35428571429 196.42029926259 L 124.35428571429 133.92429926259 C 124.35428571429 133.22029926259 124.56228571429 132.64429926259 124.97828571429 132.19629926259 C 125.39428571429 131.74829926259 125.95428571429 131.52429926259 126.65828571429 131.52429926259 L 135.39428571429 131.52429926259 C 136.09828571429 131.52429926259 136.65828571429 131.74829926259 137.07428571429 132.19629926259 C 137.49028571429 132.64429926259 137.69828571429 133.22029926259 137.69828571429 133.92429926259 L 137.69828571429 158.69229926259 L 166.01828571429 158.69229926259 L 166.01828571429 133.92429926259 C 166.01828571429 133.22029926259 166.22628571429 132.64429926259 166.64228571429 132.19629926259 C 167.05828571429 131.74829926259 167.61828571429 131.52429926259 168.32228571429 131.52429926259 L 176.96228571429 131.52429926259 C 177.66628571429 131.52429926259 178.24228571429 131.74829926259 178.69028571429 132.19629926259 C 179.13828571429 132.64429926259 179.36228571429 133.22029926259 179.36228571429 133.92429926259 L 179.36228571429 196.42029926259 C 179.36228571429 197.12429926259 179.13828571429 197.68429926259 178.69028571429 198.10029926259 C 178.24228571429 198.51629926259 177.66628571429 198.72429926259 176.96228571429 198.72429926259 L 168.32228571429 198.72429926259 C 167.68228571429 198.72429926259 167.13828571429 198.50029926259 166.69028571429 198.05229926259 C 166.24228571429 197.60429926259 166.01828571429 197.06029926259 166.01828571429 196.42029926259 L 166.01828571429 170.69229926259 L 137.69828571429 170.69229926259 L 137.69828571429 196.42029926259 C 137.69828571429 197.06029926259 137.49028571429 197.60429926259 137.07428571429 198.05229926259 C 136.65828571429 198.50029926259 136.09828571429 198.72429926259 135.39428571429 198.72429926259 L 126.65828571429 198.72429926259 C 126.01828571429 198.72429926259 125.47428571429 198.50029926259 125.02628571429 198.05229926259 Z M 197.74628571429 197.71629926259 C 195.02628571429 196.40429926259 192.88228571429 194.62829926259 191.31428571429 192.38829926259 C 189.74628571429 190.14829926259 188.96228571429 187.68429926259 188.96228571429 184.99629926259 C 188.96228571429 180.64429926259 190.72228571429 177.12429926259 194.24228571429 174.43629926259 C 197.76228571429 171.74829926259 202.59428571429 169.92429926259 208.73828571429 168.96429926259 L 221.89028571429 167.04429926259 L 221.89028571429 165.02829926259 C 221.89028571429 162.21229926259 221.18628571429 160.10029926259 219.77828571429 158.69229926259 C 218.37028571429 157.28429926259 216.09828571429 156.58029926259 212.96228571429 156.58029926259 C 210.85028571429 156.58029926259 209.13828571429 156.98029926259 207.82628571429 157.78029926259 C 206.51428571429 158.58029926259 205.47428571429 159.36429926259 204.70628571429 160.13229926259 C 203.93828571429 160.96429926259 203.42628571429 161.50829926259 203.17028571429 161.76429926259 C 202.91428571429 162.53229926259 202.43428571429 162.91629926259 201.73028571429 162.91629926259 L 194.33828571429 162.91629926259 C 193.76228571429 162.91629926259 193.26628571429 162.72429926259 192.85028571429 162.34029926259 C 192.43428571429 161.95629926259 192.22628571429 161.44429926259 192.22628571429 160.80429926259 C 192.29028571429 159.20429926259 193.07428571429 157.38029926259 194.57828571429 155.33229926259 C 196.08228571429 153.28429926259 198.40228571429 151.52429926259 201.53828571429 150.05229926259 C 204.67428571429 148.58029926259 208.51428571429 147.84429926259 213.05828571429 147.84429926259 C 220.61028571429 147.84429926259 226.11428571429 149.54029926259 229.57028571429 152.93229926259 C 233.02628571429 156.32429926259 234.75428571429 160.77229926259 234.75428571429 166.27629926259 L 234.75428571429 196.42029926259 C 234.75428571429 197.06029926259 234.54628571429 197.60429926259 234.13028571429 198.05229926259 C 233.71428571429 198.50029926259 233.15428571429 198.72429926259 232.45028571429 198.72429926259 L 224.67428571429 198.72429926259 C 224.03428571429 198.72429926259 223.49028571429 198.50029926259 223.04228571429 198.05229926259 C 222.59428571429 197.60429926259 222.37028571429 197.06029926259 222.37028571429 196.42029926259 L 222.37028571429 192.67629926259 C 220.96228571429 194.72429926259 218.96228571429 196.40429926259 216.37028571429 197.71629926259 C 213.77828571429 199.02829926259 210.56228571429 199.68429926259 206.72228571429 199.68429926259 C 203.45828571429 199.68429926259 200.46628571429 199.02829926259 197.74628571429 197.71629926259 Z M 218.62628571429 187.10829926259 C 220.86628571429 184.80429926259 221.98628571429 181.44429926259 221.98628571429 177.02829926259 L 221.98628571429 175.01229926259 L 212.38628571429 176.54829926259 C 208.67428571429 177.12429926259 205.87428571429 178.05229926259 203.98628571429 179.33229926259 C 202.09828571429 180.61229926259 201.15428571429 182.18029926259 201.15428571429 184.03629926259 C 201.15428571429 186.08429926259 202.01828571429 187.68429926259 203.74628571429 188.83629926259 C 205.47428571429 189.98829926259 207.55428571429 190.56429926259 209.98628571429 190.56429926259 C 213.50628571429 190.56429926259 216.38628571429 189.41229926259 218.62628571429 187.10829926259 Z M 251.60228571429 197.71629926259 C 248.88228571429 196.40429926259 246.73828571429 194.62829926259 245.17028571429 192.38829926259 C 243.60228571429 190.14829926259 242.81828571429 187.68429926259 242.81828571429 184.99629926259 C 242.81828571429 180.64429926259 244.57828571429 177.12429926259 248.09828571429 174.43629926259 C 251.61828571429 171.74829926259 256.45028571429 169.92429926259 262.59428571429 168.96429926259 L 275.74628571429 167.04429926259 L 275.74628571429 165.02829926259 C 275.74628571429 162.21229926259 275.04228571429 160.10029926259 273.63428571429 158.69229926259 C 272.22628571429 157.28429926259 269.95428571429 156.58029926259 266.81828571429 156.58029926259 C 264.70628571429 156.58029926259 262.99428571429 156.98029926259 261.68228571429 157.78029926259 C 260.37028571429 158.58029926259 259.33028571429 159.36429926259 258.56228571429 160.13229926259 C 257.79428571429 160.96429926259 257.28228571429 161.50829926259 257.02628571429 161.76429926259 C 256.77028571429 162.53229926259 256.29028571429 162.91629926259 255.58628571429 162.91629926259 L 248.19428571429 162.91629926259 C 247.61828571429 162.91629926259 247.12228571429 162.72429926259 246.70628571429 162.34029926259 C 246.29028571429 161.95629926259 246.08228571429 161.44429926259 246.08228571429 160.80429926259 C 246.14628571429 159.20429926259 246.93028571429 157.38029926259 248.43428571429 155.33229926259 C 249.93828571429 153.28429926259 252.25828571429 151.52429926259 255.39428571429 150.05229926259 C 258.53028571429 148.58029926259 262.37028571429 147.84429926259 266.91428571429 147.84429926259 C 274.46628571429 147.84429926259 279.97028571429 149.54029926259 283.42628571429 152.93229926259 C 286.88228571429 156.32429926259 288.61028571429 160.77229926259 288.61028571429 166.27629926259 L 288.61028571429 196.42029926259 C 288.61028571429 197.06029926259 288.40228571429 197.60429926259 287.98628571429 198.05229926259 C 287.57028571429 198.50029926259 287.01028571429 198.72429926259 286.30628571429 198.72429926259 L 278.53028571429 198.72429926259 C 277.89028571429 198.72429926259 277.34628571429 198.50029926259 276.89828571429 198.05229926259 C 276.45028571429 197.60429926259 276.22628571429 197.06029926259 276.22628571429 196.42029926259 L 276.22628571429 192.67629926259 C 274.81828571429 194.72429926259 272.81828571429 196.40429926259 270.22628571429 197.71629926259 C 267.63428571429 199.02829926259 264.41828571429 199.68429926259 260.57828571429 199.68429926259 C 257.31428571429 199.68429926259 254.32228571429 199.02829926259 251.60228571429 197.71629926259 Z M 272.48228571429 187.10829926259 C 274.72228571429 184.80429926259 275.84228571429 181.44429926259 275.84228571429 177.02829926259 L 275.84228571429 175.01229926259 L 266.24228571429 176.54829926259 C 262.53028571429 177.12429926259 259.73028571429 178.05229926259 257.84228571429 179.33229926259 C 255.95428571429 180.61229926259 255.01028571429 182.18029926259 255.01028571429 184.03629926259 C 255.01028571429 186.08429926259 255.87428571429 187.68429926259 257.60228571429 188.83629926259 C 259.33028571429 189.98829926259 261.41028571429 190.56429926259 263.84228571429 190.56429926259 C 267.36228571429 190.56429926259 270.24228571429 189.41229926259 272.48228571429 187.10829926259 Z M 308.91428571429 194.16429926259 C 306.00228571429 191.12429926259 304.54628571429 186.66029926259 304.54628571429 180.77229926259 L 304.54628571429 158.98029926259 L 296.96228571429 158.98029926259 C 296.32228571429 158.98029926259 295.77828571429 158.74029926259 295.33028571429 158.26029926259 C 294.88228571429 157.78029926259 294.65828571429 157.22029926259 294.65828571429 156.58029926259 L 294.65828571429 151.10829926259 C 294.65828571429 150.46829926259 294.88228571429 149.92429926259 295.33028571429 149.47629926259 C 295.77828571429 149.02829926259 296.32228571429 148.80429926259 296.96228571429 148.80429926259 L 304.54628571429 148.80429926259 L 304.54628571429 132.86829926259 C 304.54628571429 132.16429926259 304.77028571429 131.60429926259 305.21828571429 131.18829926259 C 305.66628571429 130.77229926259 306.21028571429 130.56429926259 306.85028571429 130.56429926259 L 314.62628571429 130.56429926259 C 315.33028571429 130.56429926259 315.89028571429 130.77229926259 316.30628571429 131.18829926259 C 316.72228571429 131.60429926259 316.93028571429 132.16429926259 316.93028571429 132.86829926259 L 316.93028571429 148.80429926259 L 328.93028571429 148.80429926259 C 329.63428571429 148.80429926259 330.19428571429 149.01229926259 330.61028571429 149.42829926259 C 331.02628571429 149.84429926259 331.23428571429 150.40429926259 331.23428571429 151.10829926259 L 331.23428571429 156.58029926259 C 331.23428571429 157.28429926259 331.01028571429 157.86029926259 330.56228571429 158.30829926259 C 330.11428571429 158.75629926259 329.57028571429 158.98029926259 328.93028571429 158.98029926259 L 316.93028571429 158.98029926259 L 316.93028571429 179.81229926259 C 316.93028571429 182.56429926259 317.41028571429 184.64429926259 318.37028571429 186.05229926259 C 319.33028571429 187.46029926259 320.93028571429 188.16429926259 323.17028571429 188.16429926259 L 329.79428571429 188.16429926259 C 330.43428571429 188.16429926259 330.97828571429 188.38829926259 331.42628571429 188.83629926259 C 331.87428571429 189.28429926259 332.09828571429 189.82829926259 332.09828571429 190.46829926259 L 332.09828571429 196.42029926259 C 332.09828571429 197.06029926259 331.89028571429 197.60429926259 331.47428571429 198.05229926259 C 331.05828571429 198.50029926259 330.49828571429 198.72429926259 329.79428571429 198.72429926259 L 322.01828571429 198.72429926259 C 316.19428571429 198.72429926259 311.82628571429 197.20429926259 308.91428571429 194.16429926259 Z M 362.53028571429 198.05229926259 C 362.08228571429 197.60429926259 361.85828571429 197.06029926259 361.85828571429 196.42029926259 L 361.85828571429 133.92429926259 C 361.85828571429 133.22029926259 362.06628571429 132.64429926259 362.48228571429 132.19629926259 C 362.89828571429 131.74829926259 363.45828571429 131.52429926259 364.16228571429 131.52429926259 L 392.00228571429 131.52429926259 C 399.49028571429 131.52429926259 405.07428571429 133.17229926259 408.75428571429 136.46829926259 C 412.43428571429 139.76429926259 414.27428571429 144.26029926259 414.27428571429 149.95629926259 C 414.27428571429 153.28429926259 413.45828571429 156.11629926259 411.82628571429 158.45229926259 C 410.19428571429 160.78829926259 408.29028571429 162.46829926259 406.11428571429 163.49229926259 C 408.80228571429 164.70829926259 411.05828571429 166.69229926259 412.88228571429 169.44429926259 C 414.70628571429 172.19629926259 415.61828571429 175.33229926259 415.61828571429 178.85229926259 C 415.61828571429 184.80429926259 413.61828571429 189.60429926259 409.61828571429 193.25229926259 C 405.61828571429 196.90029926259 400.00228571429 198.72429926259 392.77028571429 198.72429926259 L 364.16228571429 198.72429926259 C 363.52228571429 198.72429926259 362.97828571429 198.50029926259 362.53028571429 198.05229926259 Z M 390.27428571429 159.07629926259 C 393.60228571429 159.07629926259 396.13028571429 158.27629926259 397.85828571429 156.67629926259 C 399.58628571429 155.07629926259 400.45028571429 152.93229926259 400.45028571429 150.24429926259 C 400.45028571429 147.49229926259 399.58628571429 145.36429926259 397.85828571429 143.86029926259 C 396.13028571429 142.35629926259 393.60228571429 141.60429926259 390.27428571429 141.60429926259 L 375.20228571429 141.60429926259 L 375.20228571429 159.07629926259 L 390.27428571429 159.07629926259 Z M 391.23428571429 188.54829926259 C 394.56228571429 188.54829926259 397.15428571429 187.63629926259 399.01028571429 185.81229926259 C 400.86628571429 183.98829926259 401.79428571429 181.66829926259 401.79428571429 178.85229926259 C 401.79428571429 175.97229926259 400.86628571429 173.62029926259 399.01028571429 171.79629926259 C 397.15428571429 169.97229926259 394.56228571429 169.06029926259 391.23428571429 169.06029926259 L 375.20228571429 169.06029926259 L 375.20228571429 188.54829926259 L 391.23428571429 188.54829926259 Z M 431.12228571429 197.71629926259 C 428.40228571429 196.40429926259 426.25828571429 194.62829926259 424.69028571429 192.38829926259 C 423.12228571429 190.14829926259 422.33828571429 187.68429926259 422.33828571429 184.99629926259 C 422.33828571429 180.64429926259 424.09828571429 177.12429926259 427.61828571429 174.43629926259 C 431.13828571429 171.74829926259 435.97028571429 169.92429926259 442.11428571429 168.96429926259 L 455.26628571429 167.04429926259 L 455.26628571429 165.02829926259 C 455.26628571429 162.21229926259 454.56228571429 160.10029926259 453.15428571429 158.69229926259 C 451.74628571429 157.28429926259 449.47428571429 156.58029926259 446.33828571429 156.58029926259 C 444.22628571429 156.58029926259 442.51428571429 156.98029926259 441.20228571429 157.78029926259 C 439.89028571429 158.58029926259 438.85028571429 159.36429926259 438.08228571429 160.13229926259 C 437.31428571429 160.96429926259 436.80228571429 161.50829926259 436.54628571429 161.76429926259 C 436.29028571429 162.53229926259 435.81028571429 162.91629926259 435.10628571429 162.91629926259 L 427.71428571429 162.91629926259 C 427.13828571429 162.91629926259 426.64228571429 162.72429926259 426.22628571429 162.34029926259 C 425.81028571429 161.95629926259 425.60228571429 161.44429926259 425.60228571429 160.80429926259 C 425.66628571429 159.20429926259 426.45028571429 157.38029926259 427.95428571429 155.33229926259 C 429.45828571429 153.28429926259 431.77828571429 151.52429926259 434.91428571429 150.05229926259 C 438.05028571429 148.58029926259 441.89028571429 147.84429926259 446.43428571429 147.84429926259 C 453.98628571429 147.84429926259 459.49028571429 149.54029926259 462.94628571429 152.93229926259 C 466.40228571429 156.32429926259 468.13028571429 160.77229926259 468.13028571429 166.27629926259 L 468.13028571429 196.42029926259 C 468.13028571429 197.06029926259 467.92228571429 197.60429926259 467.50628571429 198.05229926259 C 467.09028571429 198.50029926259 466.53028571429 198.72429926259 465.82628571429 198.72429926259 L 458.05028571429 198.72429926259 C 457.41028571429 198.72429926259 456.86628571429 198.50029926259 456.41828571429 198.05229926259 C 455.97028571429 197.60429926259 455.74628571429 197.06029926259 455.74628571429 196.42029926259 L 455.74628571429 192.67629926259 C 454.33828571429 194.72429926259 452.33828571429 196.40429926259 449.74628571429 197.71629926259 C 447.15428571429 199.02829926259 443.93828571429 199.68429926259 440.09828571429 199.68429926259 C 436.83428571429 199.68429926259 433.84228571429 199.02829926259 431.12228571429 197.71629926259 Z M 452.00228571429 187.10829926259 C 454.24228571429 184.80429926259 455.36228571429 181.44429926259 455.36228571429 177.02829926259 L 455.36228571429 175.01229926259 L 445.76228571429 176.54829926259 C 442.05028571429 177.12429926259 439.25028571429 178.05229926259 437.36228571429 179.33229926259 C 435.47428571429 180.61229926259 434.53028571429 182.18029926259 434.53028571429 184.03629926259 C 434.53028571429 186.08429926259 435.39428571429 187.68429926259 437.12228571429 188.83629926259 C 438.85028571429 189.98829926259 440.93028571429 190.56429926259 443.36228571429 190.56429926259 C 446.88228571429 190.56429926259 449.76228571429 189.41229926259 452.00228571429 187.10829926259 Z M 477.63428571429 198.05229926259 C 477.18628571429 197.60429926259 476.96228571429 197.06029926259 476.96228571429 196.42029926259 L 476.96228571429 190.94829926259 C 476.96228571429 190.05229926259 477.41028571429 189.02829926259 478.30628571429 187.87629926259 L 502.88228571429 158.78829926259 L 480.03428571429 158.78829926259 C 479.39428571429 158.78829926259 478.85028571429 158.56429926259 478.40228571429 158.11629926259 C 477.95428571429 157.66829926259 477.73028571429 157.12429926259 477.73028571429 156.48429926259 L 477.73028571429 151.10829926259 C 477.73028571429 150.46829926259 477.95428571429 149.92429926259 478.40228571429 149.47629926259 C 478.85028571429 149.02829926259 479.39428571429 148.80429926259 480.03428571429 148.80429926259 L 516.41828571429 148.80429926259 C 517.12228571429 148.80429926259 517.68228571429 149.01229926259 518.09828571429 149.42829926259 C 518.51428571429 149.84429926259 518.72228571429 150.40429926259 518.72228571429 151.10829926259 L 518.72228571429 156.96429926259 C 518.72228571429 157.86029926259 518.27428571429 158.82029926259 517.37828571429 159.84429926259 L 493.37828571429 188.74029926259 L 518.43428571429 188.74029926259 C 519.13828571429 188.74029926259 519.69828571429 188.94829926259 520.11428571429 189.36429926259 C 520.53028571429 189.78029926259 520.73828571429 190.34029926259 520.73828571429 191.04429926259 L 520.73828571429 196.42029926259 C 520.73828571429 197.06029926259 520.53028571429 197.60429926259 520.11428571429 198.05229926259 C 519.69828571429 198.50029926259 519.13828571429 198.72429926259 518.43428571429 198.72429926259 L 479.26628571429 198.72429926259 C 478.62628571429 198.72429926259 478.08228571429 198.50029926259 477.63428571429 198.05229926259 Z M 534.99428571429 197.71629926259 C 532.27428571429 196.40429926259 530.13028571429 194.62829926259 528.56228571429 192.38829926259 C 526.99428571429 190.14829926259 526.21028571429 187.68429926259 526.21028571429 184.99629926259 C 526.21028571429 180.64429926259 527.97028571429 177.12429926259 531.49028571429 174.43629926259 C 535.01028571429 171.74829926259 539.84228571429 169.92429926259 545.98628571429 168.96429926259 L 559.13828571429 167.04429926259 L 559.13828571429 165.02829926259 C 559.13828571429 162.21229926259 558.43428571429 160.10029926259 557.02628571429 158.69229926259 C 555.61828571429 157.28429926259 553.34628571429 156.58029926259 550.21028571429 156.58029926259 C 548.09828571429 156.58029926259 546.38628571429 156.98029926259 545.07428571429 157.78029926259 C 543.76228571429 158.58029926259 542.72228571429 159.36429926259 541.95428571429 160.13229926259 C 541.18628571429 160.96429926259 540.67428571429 161.50829926259 540.41828571429 161.76429926259 C 540.16228571429 162.53229926259 539.68228571429 162.91629926259 538.97828571429 162.91629926259 L 531.58628571429 162.91629926259 C 531.01028571429 162.91629926259 530.51428571429 162.72429926259 530.09828571429 162.34029926259 C 529.68228571429 161.95629926259 529.47428571429 161.44429926259 529.47428571429 160.80429926259 C 529.53828571429 159.20429926259 530.32228571429 157.38029926259 531.82628571429 155.33229926259 C 533.33028571429 153.28429926259 535.65028571429 151.52429926259 538.78628571429 150.05229926259 C 541.92228571429 148.58029926259 545.76228571429 147.84429926259 550.30628571429 147.84429926259 C 557.85828571429 147.84429926259 563.36228571429 149.54029926259 566.81828571429 152.93229926259 C 570.27428571429 156.32429926259 572.00228571429 160.77229926259 572.00228571429 166.27629926259 L 572.00228571429 196.42029926259 C 572.00228571429 197.06029926259 571.79428571429 197.60429926259 571.37828571429 198.05229926259 C 570.96228571429 198.50029926259 570.40228571429 198.72429926259 569.69828571429 198.72429926259 L 561.92228571429 198.72429926259 C 561.28228571429 198.72429926259 560.73828571429 198.50029926259 560.29028571429 198.05229926259 C 559.84228571429 197.60429926259 559.61828571429 197.06029926259 559.61828571429 196.42029926259 L 559.61828571429 192.67629926259 C 558.21028571429 194.72429926259 556.21028571429 196.40429926259 553.61828571429 197.71629926259 C 551.02628571429 199.02829926259 547.81028571429 199.68429926259 543.97028571429 199.68429926259 C 540.70628571429 199.68429926259 537.71428571429 199.02829926259 534.99428571429 197.71629926259 Z M 555.87428571429 187.10829926259 C 558.11428571429 184.80429926259 559.23428571429 181.44429926259 559.23428571429 177.02829926259 L 559.23428571429 175.01229926259 L 549.63428571429 176.54829926259 C 545.92228571429 177.12429926259 543.12228571429 178.05229926259 541.23428571429 179.33229926259 C 539.34628571429 180.61229926259 538.40228571429 182.18029926259 538.40228571429 184.03629926259 C 538.40228571429 186.08429926259 539.26628571429 187.68429926259 540.99428571429 188.83629926259 C 542.72228571429 189.98829926259 544.80228571429 190.56429926259 547.23428571429 190.56429926259 C 550.75428571429 190.56429926259 553.63428571429 189.41229926259 555.87428571429 187.10829926259 Z M 588.85028571429 197.71629926259 C 586.13028571429 196.40429926259 583.98628571429 194.62829926259 582.41828571429 192.38829926259 C 580.85028571429 190.14829926259 580.06628571429 187.68429926259 580.06628571429 184.99629926259 C 580.06628571429 180.64429926259 581.82628571429 177.12429926259 585.34628571429 174.43629926259 C 588.86628571429 171.74829926259 593.69828571429 169.92429926259 599.84228571429 168.96429926259 L 612.99428571429 167.04429926259 L 612.99428571429 165.02829926259 C 612.99428571429 162.21229926259 612.29028571429 160.10029926259 610.88228571429 158.69229926259 C 609.47428571429 157.28429926259 607.20228571429 156.58029926259 604.06628571429 156.58029926259 C 601.95428571429 156.58029926259 600.24228571429 156.98029926259 598.93028571429 157.78029926259 C 597.61828571429 158.58029926259 596.57828571429 159.36429926259 595.81028571429 160.13229926259 C 595.04228571429 160.96429926259 594.53028571429 161.50829926259 594.27428571429 161.76429926259 C 594.01828571429 162.53229926259 593.53828571429 162.91629926259 592.83428571429 162.91629926259 L 585.44228571429 162.91629926259 C 584.86628571429 162.91629926259 584.37028571429 162.72429926259 583.95428571429 162.34029926259 C 583.53828571429 161.95629926259 583.33028571429 161.44429926259 583.33028571429 160.80429926259 C 583.39428571429 159.20429926259 584.17828571429 157.38029926259 585.68228571429 155.33229926259 C 587.18628571429 153.28429926259 589.50628571429 151.52429926259 592.64228571429 150.05229926259 C 595.77828571429 148.58029926259 599.61828571429 147.84429926259 604.16228571429 147.84429926259 C 611.71428571429 147.84429926259 617.21828571429 149.54029926259 620.67428571429 152.93229926259 C 624.13028571429 156.32429926259 625.85828571429 160.77229926259 625.85828571429 166.27629926259 L 625.85828571429 196.42029926259 C 625.85828571429 197.06029926259 625.65028571429 197.60429926259 625.23428571429 198.05229926259 C 624.81828571429 198.50029926259 624.25828571429 198.72429926259 623.55428571429 198.72429926259 L 615.77828571429 198.72429926259 C 615.13828571429 198.72429926259 614.59428571429 198.50029926259 614.14628571429 198.05229926259 C 613.69828571429 197.60429926259 613.47428571429 197.06029926259 613.47428571429 196.42029926259 L 613.47428571429 192.67629926259 C 612.06628571429 194.72429926259 610.06628571429 196.40429926259 607.47428571429 197.71629926259 C 604.88228571429 199.02829926259 601.66628571429 199.68429926259 597.82628571429 199.68429926259 C 594.56228571429 199.68429926259 591.57028571429 199.02829926259 588.85028571429 197.71629926259 Z M 609.73028571429 187.10829926259 C 611.97028571429 184.80429926259 613.09028571429 181.44429926259 613.09028571429 177.02829926259 L 613.09028571429 175.01229926259 L 603.49028571429 176.54829926259 C 599.77828571429 177.12429926259 596.97828571429 178.05229926259 595.09028571429 179.33229926259 C 593.20228571429 180.61229926259 592.25828571429 182.18029926259 592.25828571429 184.03629926259 C 592.25828571429 186.08429926259 593.12228571429 187.68429926259 594.85028571429 188.83629926259 C 596.57828571429 189.98829926259 598.65828571429 190.56429926259 601.09028571429 190.56429926259 C 604.61028571429 190.56429926259 607.49028571429 189.41229926259 609.73028571429 187.10829926259 Z M 637.85828571429 198.05229926259 C 637.41028571429 197.60429926259 637.18628571429 197.06029926259 637.18628571429 196.42029926259 L 637.18628571429 151.20429926259 C 637.18628571429 150.56429926259 637.41028571429 150.00429926259 637.85828571429 149.52429926259 C 638.30628571429 149.04429926259 638.85028571429 148.80429926259 639.49028571429 148.80429926259 L 647.26628571429 148.80429926259 C 647.97028571429 148.80429926259 648.54628571429 149.02829926259 648.99428571429 149.47629926259 C 649.44228571429 149.92429926259 649.66628571429 150.50029926259 649.66628571429 151.20429926259 L 649.66628571429 155.14029926259 C 651.20228571429 153.09229926259 653.13828571429 151.52429926259 655.47428571429 150.43629926259 C 657.81028571429 149.34829926259 660.48228571429 148.80429926259 663.49028571429 148.80429926259 L 667.42628571429 148.80429926259 C 668.13028571429 148.80429926259 668.69028571429 149.01229926259 669.10628571429 149.42829926259 C 669.52228571429 149.84429926259 669.73028571429 150.40429926259 669.73028571429 151.10829926259 L 669.73028571429 158.02029926259 C 669.73028571429 158.66029926259 669.52228571429 159.20429926259 669.10628571429 159.65229926259 C 668.69028571429 160.10029926259 668.13028571429 160.32429926259 667.42628571429 160.32429926259 L 659.93828571429 160.32429926259 C 656.93028571429 160.32429926259 654.56228571429 161.18829926259 652.83428571429 162.91629926259 C 651.10628571429 164.64429926259 650.24228571429 167.01229926259 650.24228571429 170.02029926259 L 650.24228571429 196.42029926259 C 650.24228571429 197.06029926259 650.01828571429 197.60429926259 649.57028571429 198.05229926259 C 649.12228571429 198.50029926259 648.54628571429 198.72429926259 647.84228571429 198.72429926259 L 639.49028571429 198.72429926259 C 638.85028571429 198.72429926259 638.30628571429 198.50029926259 637.85828571429 198.05229926259 Z"/></svg>